<svg fill="#0d141a" viewBox="0 0 103.822 18.377" height="100%" width="100%" xmlns="http://www.w3.org/2000/svg">
<path preserveAspectRatio="none" d="M8.88 18.10L5.15 18.10L5.15 5.04L0 5.04L0 2.00L14.03 2.00L14.03 5.04L8.88 5.04L8.88 18.10ZM19.37 18.10L15.78 18.10L15.78 5.73L19.20 5.73L19.20 9.22L18.72 8.21Q19.27 6.90 20.49 6.22Q21.71 5.54 23.46 5.54L23.46 5.54L23.46 8.85Q23.23 8.83 23.05 8.82Q22.86 8.81 22.66 8.81L22.66 8.81Q21.18 8.81 20.27 9.65Q19.37 10.49 19.37 12.26L19.37 12.26L19.37 18.10ZM29.28 18.10L25.69 18.10L25.69 5.73L29.28 5.73L29.28 18.10ZM27.48 4.00L27.48 4.00Q26.50 4.00 25.88 3.43Q25.25 2.85 25.25 2.00L25.25 2.00Q25.25 1.15 25.88 0.57Q26.50 0 27.48 0L27.48 0Q28.47 0 29.09 0.54Q29.72 1.08 29.72 1.93L29.72 1.93Q29.72 2.83 29.11 3.42Q28.50 4.00 27.48 4.00ZM48.46 5.54L48.46 5.54Q49.93 5.54 51.07 6.13Q52.21 6.72 52.87 7.92Q53.52 9.13 53.52 11.02L53.52 11.02L53.52 18.10L49.93 18.10L49.93 11.57Q49.93 10.07 49.31 9.36Q48.69 8.65 47.56 8.65L47.56 8.65Q46.78 8.65 46.16 9.00Q45.54 9.36 45.20 10.07Q44.85 10.79 44.85 11.89L44.85 11.89L44.85 18.10L41.26 18.10L41.26 11.57Q41.26 10.07 40.65 9.36Q40.04 8.65 38.92 8.65L38.92 8.65Q38.13 8.65 37.51 9.00Q36.89 9.36 36.55 10.07Q36.20 10.79 36.20 11.89L36.20 11.89L36.20 18.10L32.61 18.10L32.61 5.73L36.04 5.73L36.04 9.11L35.40 8.12Q36.04 6.85 37.23 6.20Q38.41 5.54 39.93 5.54L39.93 5.54Q41.63 5.54 42.91 6.41Q44.18 7.27 44.60 9.04L44.60 9.04L43.33 8.69Q43.95 7.24 45.32 6.39Q46.69 5.54 48.46 5.54ZM64.15 18.38L64.15 18.38Q60.72 18.38 58.79 16.47Q56.86 14.56 56.86 11.02L56.86 11.02L56.86 2.00L60.58 2.00L60.58 10.88Q60.58 13.18 61.52 14.19Q62.47 15.20 64.17 15.20L64.17 15.20Q65.87 15.20 66.81 14.19Q67.76 13.18 67.76 10.88L67.76 10.88L67.76 2.00L71.44 2.00L71.44 11.02Q71.44 14.56 69.51 16.47Q67.57 18.38 64.15 18.38ZM78.84 18.10L75.12 18.10L75.12 2.00L82.09 2.00Q84.25 2.00 85.81 2.70Q87.38 3.40 88.23 4.71Q89.08 6.03 89.08 7.84L89.08 7.84Q89.08 9.64 88.23 10.94Q87.38 12.24 85.81 12.93Q84.25 13.62 82.09 13.62L82.09 13.62L77.19 13.62L78.84 11.98L78.84 18.10ZM89.38 18.10L85.35 18.10L81.33 12.26L85.31 12.26L89.38 18.10ZM78.84 3.27L78.84 12.40L77.19 10.65L81.88 10.65Q83.60 10.65 84.46 9.90Q85.31 9.15 85.31 7.84L85.31 7.84Q85.31 6.51 84.46 5.77Q83.60 5.04 81.88 5.04L81.88 5.04L77.19 5.04L78.84 3.27ZM103.82 18.10L92.02 18.10L92.02 2.00L95.75 2.00L95.75 15.06L103.82 15.06L103.82 18.10Z"></path></svg>
